<?xml version="1.0" encoding="UTF-8" standalone="no"?>
<!DOCTYPE svg PUBLIC "-//W3C//DTD SVG 1.1//EN" "http://www.w3.org/Graphics/SVG/1.1/DTD/svg11.dtd">
<svg width="100%" height="100%" viewBox="0 0 324 236" version="1.1" xmlns="http://www.w3.org/2000/svg" xmlns:xlink="http://www.w3.org/1999/xlink" xml:space="preserve" xmlns:serif="http://www.serif.com/" style="fill-rule:evenodd;clip-rule:evenodd;stroke-linejoin:round;stroke-miterlimit:2;">
    <g transform="matrix(1,0,0,1,-48.564194,-18.179861)">
        <g transform="matrix(1,0,-0.176327,1,-166.41308,-211)">
            <path d="M403.036,410.144C409.844,397.844 413.161,381.115 416.538,362.578C417.294,354.087 418.889,346.393 421.232,339.488C422.3,336.34 423.524,333.357 424.894,330.536C427.918,324.311 431.656,318.882 436.014,314.239C449.074,300.327 467.704,293.482 489.376,293.482C520.871,293.482 535.634,308.573 544.492,323.336L548.429,323.336L548.429,229.18L579.267,229.18L579.267,458.829L549.085,458.829L549.085,433.568L544.492,433.568C535.634,448.331 520.871,463.422 489.376,463.422C469.684,463.422 452.381,454.73 439.534,440.416L451.906,416.31C460.69,432.91 476.951,435.865 497.25,435.865C528.744,435.865 548.429,413.884 548.429,378.452C548.429,343.02 528.744,321.04 497.25,321.04C466.411,321.04 448.406,339.708 445.111,380.452C444.811,384.164 443.065,391.79 442.503,395.261C442.498,395.296 442.49,395.33 442.481,395.363C442.286,396.049 440.108,403.689 438.745,407.515C436.491,413.841 429.913,427.266 429.913,427.266C428.513,429.483 427.025,431.66 425.444,433.781C425.444,433.781 418.441,427.298 412.556,421.053L412.467,420.958C407.232,415.391 403.142,410.071 403.036,410.144Z" style="fill:rgb(51,31,232);"/>
        </g>
        <g transform="matrix(1,0,-0.176327,1,-166.41308,-211)">
            <path d="M425.444,433.781C412.628,450.971 393.755,464.422 367.394,464.422C318.839,464.422 283.408,428.663 283.408,379.452C283.408,377.561 283.46,375.69 283.563,373.841C286.149,327.546 320.68,294.482 366.738,294.482C397.095,294.482 412.515,303.609 419.753,313.118L405.586,333.34C398.96,323.608 392.156,322.696 366.738,322.696C335.899,322.696 314.246,345.333 314.246,379.452C314.246,413.571 334.017,431.208 365.512,431.208C384.728,431.208 395.835,423.153 403.036,410.144C403.142,410.071 407.232,415.391 412.467,420.958L412.556,421.053C418.441,427.298 425.444,433.781 425.444,433.781Z" style="fill:rgb(127,139,228);"/>
        </g>
    </g>
</svg>
